<?xml version="1.0" encoding="UTF-8"?>
<svg id="Calque_1" data-name="Calque 1" xmlns="http://www.w3.org/2000/svg" xmlns:xlink="http://www.w3.org/1999/xlink" viewBox="0 0 512 512">
  <defs>
    <style>
      .cls-1 {
        fill: #014751;
      }

      .cls-2, .cls-3, .cls-4 {
        fill: #fff;
      }

      .cls-5 {
        stroke: #fff;
        stroke-miterlimit: 10;
        stroke-width: .96px;
      }

      .cls-5, .cls-6 {
        fill: none;
      }

      .cls-3 {
        opacity: .72;
      }

      .cls-7 {
        clip-path: url(#clippath-1);
      }

      .cls-4 {
        opacity: .4;
      }

      .cls-8 {
        fill: #94ecbe;
      }

      .cls-9 {
        fill: #ffd013;
      }

      .cls-10 {
        fill: #ffeeb4;
      }

      .cls-11 {
        clip-path: url(#clippath);
      }
    </style>
    <clipPath id="clippath">
      <rect class="cls-6" x="170.94" y="52.52" width="3.48" height="7.84" transform="translate(-2.08 6.83) rotate(-2.25)"/>
    </clipPath>
    <clipPath id="clippath-1">
      <rect class="cls-6" x="187.85" y="72.82" width="3.69" height="69.13"/>
    </clipPath>
  </defs>
  <circle class="cls-1" cx="127.42" cy="128" r="116.33"/>
  <g>
    <path class="cls-5" d="M188.49,122.1c.1.02,1.2-7.34,3.05-11.8,1.61-3.89,4.82-8.38,4.82-8.38"/>
    <g>
      <g class="cls-11">
        <path class="cls-9" d="M171.72,52.58c-.26.08-.34.47-.34.76.03,1.31.38,2.46.72,3.7.09.33.82,3.02,1.28,2.91,1.49-.37.79-2.13.47-3.11-.41-1.24-.73-3.03-1.6-4.02-.12-.13-.27-.26-.44-.26-.03,0-.06,0-.09.02Z"/>
      </g>
      <path class="cls-9" d="M194.42,60.66c.23.04.34.36.36.61.11,1.11-.07,2.12-.24,3.22-.05.29-.39,2.65-.8,2.6-1.3-.17-.89-1.73-.71-2.59.22-1.1.31-2.65.96-3.57.09-.12.2-.25.35-.26.03,0,.05,0,.08,0Z"/>
      <g class="cls-7">
        <path class="cls-2" d="M188.23,141.93c-.31-10.83-.31-21.81,0-32.63.35-12.15,1.09-24.42,2.21-36.47l.81.17c-1.12,12.01-1.86,24.24-2.21,36.35-.31,10.79-.31,21.73,0,32.52l-.82.05Z"/>
      </g>
      <path class="cls-8" d="M187.92,79.67s0,.06-.01.09c-.23,1.5-.38,3.24.69,4.32.72.72,1.75,1.13,2.67,1.09.34-.03.68-.1,1-.23,1.98-.82,2.37-6.56,3.43-12.82.6-3.56,1.29-6.51,0-7.36-.33-.22-.98-.4-2.33-.61-.93-.15-1.79-.31-2.46.56-.42.54-.58,1.24-.73,1.91-.93,4.32-1.6,8.69-2.26,13.06Z"/>
      <path class="cls-9" d="M200.84,91.61c.12.06.13.25.1.4-.12.64-.38,1.17-.65,1.75-.07.16-.64,1.41-.86,1.31-.7-.3-.22-1.1.02-1.55.3-.57.6-1.42,1.11-1.83.07-.06.15-.11.24-.09.02,0,.03,0,.04.01Z"/>
      <path class="cls-8" d="M194.17,101.11s-.01.03-.02.05c-.37.8-.73,1.74-.31,2.51.29.52.79.91,1.31,1.03.19.04.39.05.59.03,1.23-.14,2.37-3.26,3.96-6.56.9-1.88,1.76-3.4,1.18-4.08-.15-.17-.48-.38-1.19-.71-.49-.23-.95-.46-1.46-.09-.32.24-.52.59-.71.94-1.21,2.25-2.28,4.57-3.35,6.88Z"/>
      <path class="cls-2" d="M187.37,138.2l1.12-.09c-.78-11.08-2-22.26-3.62-33.22-1.82-12.32-4.2-24.68-7.06-36.74l-1.08.32c2.85,12.03,5.22,24.35,7.04,36.62,1.62,10.93,2.83,22.07,3.6,33.11Z"/>
      <path class="cls-8" d="M181.76,73.49s.02.07.03.1c.46,1.71.87,3.72-.23,5.11-.74.94-1.88,1.55-2.96,1.61-.4.02-.8-.03-1.19-.13-2.41-.7-3.63-7.32-5.69-14.45-1.17-4.05-2.36-7.39-.97-8.55.35-.29,1.09-.59,2.62-1.01,1.07-.29,2.04-.59,2.93.32.56.58.84,1.36,1.1,2.12,1.65,4.9,3.01,9.89,4.36,14.87Z"/>
      <g>
        <path class="cls-8" d="M99.94,125.95c-2.05-1.18-3.62-2.87-4.72-5.07-1.1-2.2-1.65-4.77-1.65-7.72s.55-5.51,1.65-7.7c1.1-2.18,2.67-3.87,4.72-5.04,2.05-1.18,4.44-1.77,7.18-1.77,1.77,0,3.43.26,4.98.78,1.55.52,2.93,1.28,4.14,2.27.35.27.59.55.72.84.13.3.2.66.2,1.09,0,.59-.16,1.09-.48,1.49s-.71.6-1.17.6c-.54,0-1.09-.19-1.65-.56-1.15-.86-2.22-1.45-3.22-1.79-.99-.33-2.09-.5-3.3-.5-2.79,0-4.9.87-6.33,2.61-1.43,1.74-2.15,4.3-2.15,7.68s.72,5.98,2.15,7.72c1.43,1.74,3.54,2.61,6.33,2.61,1.15,0,2.22-.17,3.2-.52.98-.35,2.08-.94,3.32-1.77.27-.16.54-.29.8-.4.27-.11.55-.16.84-.16.46,0,.84.2,1.17.6.32.4.48.9.48,1.49,0,.4-.07.76-.2,1.07-.13.31-.38.6-.72.86-1.21.99-2.59,1.75-4.14,2.27-1.55.52-3.22.78-4.98.78-2.73,0-5.13-.59-7.18-1.77Z"/>
        <path class="cls-8" d="M144.86,125.51c0,.62-.25,1.13-.74,1.53-.5.4-1.08.6-1.75.6-.43,0-.84-.1-1.23-.3-.39-.2-.72-.5-.99-.9l-5.35-8.12c-.54-.86-1.11-1.46-1.71-1.81-.6-.35-1.39-.52-2.35-.52h-3.94v9c0,.8-.23,1.44-.68,1.91-.46.47-1.07.7-1.85.7s-1.4-.23-1.87-.7c-.47-.47-.7-1.11-.7-1.91v-23.52c0-.78.22-1.38.66-1.81.44-.43,1.05-.64,1.83-.64h10.05c3.22,0,5.66.72,7.34,2.15,1.67,1.43,2.51,3.5,2.51,6.21,0,2.2-.62,4-1.87,5.41-1.25,1.41-3.01,2.31-5.29,2.71.78.19,1.46.52,2.05,1.01s1.17,1.15,1.73,2.01l3.66,5.59c.32.48.48.95.48,1.41ZM137.83,110.9c.91-.74,1.37-1.87,1.37-3.4s-.46-2.69-1.37-3.4c-.91-.71-2.35-1.07-4.3-1.07h-6.75v8.96h6.75c1.96,0,3.39-.37,4.3-1.11Z"/>
        <path class="cls-8" d="M176.62,99.52c.46.47.68,1.09.68,1.87v23.8c0,.75-.21,1.34-.64,1.77-.43.43-.99.64-1.69.64s-1.25-.21-1.65-.64c-.4-.43-.6-1.02-.6-1.77v-16.56l-6.83,12.94c-.32.59-.67,1.03-1.05,1.31-.38.28-.82.42-1.33.42s-.95-.13-1.33-.4c-.38-.27-.72-.71-1.05-1.33l-6.87-12.74v16.36c0,.72-.21,1.31-.62,1.75-.42.44-.97.66-1.67.66s-1.25-.21-1.65-.64c-.4-.43-.6-1.02-.6-1.77v-23.8c0-.78.22-1.4.66-1.87.44-.47,1.04-.7,1.79-.7,1.05,0,1.86.58,2.45,1.73l8.92,17,8.88-17c.59-1.15,1.38-1.73,2.37-1.73.75,0,1.35.23,1.81.7Z"/>
      </g>
      <g>
        <path class="cls-10" d="M87.08,170.03c0,.76-.31,1.4-.92,1.93-.61.53-1.32.79-2.12.79-1.18,0-2.13-.53-2.85-1.58l-8.49-13.17c-.97-1.52-2.01-2.59-3.1-3.2-1.1-.61-2.53-.92-4.31-.92h-7.16v15.45c0,1.01-.29,1.82-.86,2.41s-1.36.89-2.38.89-1.75-.3-2.34-.89c-.59-.59-.89-1.39-.89-2.41v-38.51c0-.97.29-1.74.86-2.31s1.36-.86,2.38-.86h15.77c4.94,0,8.71,1.1,11.31,3.29,2.6,2.2,3.9,5.41,3.9,9.63,0,3.51-.99,6.34-2.98,8.52-1.99,2.18-4.81,3.56-8.49,4.15,1.1.3,2.09.82,2.98,1.58.89.76,1.75,1.82,2.6,3.17l6.52,10.26c.38.55.57,1.14.57,1.77ZM69.91,148.62c3.29,0,5.73-.64,7.32-1.93,1.58-1.29,2.38-3.28,2.38-5.99s-.78-4.68-2.34-5.92c-1.56-1.24-4.01-1.87-7.35-1.87h-11.84v15.71h11.84Z"/>
        <path class="cls-10" d="M120.58,165.21c.38.46.57,1.06.57,1.77,0,1.23-.76,2.26-2.28,3.1-1.48.84-3.09,1.5-4.85,1.96-1.75.46-3.43.7-5.04.7-4.9,0-8.76-1.43-11.59-4.28-2.83-2.85-4.24-6.75-4.24-11.69,0-3.17.62-5.97,1.87-8.42,1.25-2.45,3-4.35,5.26-5.7,2.26-1.35,4.82-2.03,7.7-2.03,4.14,0,7.41,1.33,9.82,3.99,2.41,2.66,3.61,6.25,3.61,10.77,0,1.69-.76,2.53-2.28,2.53h-19.57c.42,6.55,3.57,9.82,9.44,9.82,1.56,0,2.91-.21,4.05-.63,1.14-.42,2.34-.97,3.61-1.65.13-.08.47-.26,1.04-.54.57-.27,1.04-.41,1.43-.41.59,0,1.08.23,1.46.7ZM102.22,147.67c-1.48,1.56-2.37,3.76-2.66,6.59h16.34c-.13-2.87-.86-5.08-2.19-6.62-1.33-1.54-3.2-2.31-5.61-2.31s-4.41.78-5.89,2.34Z"/>
        <path class="cls-10" d="M154.4,165.21c.38.46.57,1.06.57,1.77,0,1.23-.76,2.26-2.28,3.1-1.48.84-3.09,1.5-4.85,1.96-1.75.46-3.43.7-5.04.7-4.9,0-8.76-1.43-11.59-4.28-2.83-2.85-4.24-6.75-4.24-11.69,0-3.17.62-5.97,1.87-8.42,1.24-2.45,3-4.35,5.26-5.7,2.26-1.35,4.82-2.03,7.7-2.03,4.14,0,7.41,1.33,9.82,3.99,2.41,2.66,3.61,6.25,3.61,10.77,0,1.69-.76,2.53-2.28,2.53h-19.57c.42,6.55,3.57,9.82,9.44,9.82,1.56,0,2.91-.21,4.05-.63,1.14-.42,2.34-.97,3.61-1.65.13-.08.48-.26,1.05-.54.57-.27,1.05-.41,1.43-.41.59,0,1.08.23,1.46.7ZM136.04,147.67c-1.48,1.56-2.37,3.76-2.66,6.59h16.34c-.13-2.87-.86-5.08-2.19-6.62-1.33-1.54-3.2-2.31-5.61-2.31s-4.41.78-5.89,2.34Z"/>
        <path class="cls-10" d="M190.19,128.16c.59.55.89,1.29.89,2.22v39.14c0,.97-.29,1.73-.86,2.28s-1.34.82-2.31.82-1.74-.28-2.31-.82-.86-1.31-.86-2.28v-2.53c-.93,1.86-2.28,3.28-4.05,4.28-1.77.99-3.82,1.49-6.14,1.49-2.66,0-5.04-.68-7.13-2.03-2.09-1.35-3.72-3.25-4.88-5.7-1.16-2.45-1.74-5.26-1.74-8.42s.58-6.02,1.74-8.42c1.16-2.41,2.78-4.26,4.85-5.57,2.07-1.31,4.45-1.96,7.16-1.96,2.32,0,4.36.5,6.11,1.49,1.75.99,3.09,2.4,4.02,4.21v-16.09c0-.89.29-1.59.86-2.12.57-.53,1.34-.79,2.31-.79s1.75.27,2.34.82ZM182.46,164.83c1.52-1.9,2.28-4.6,2.28-8.11s-.75-6.21-2.25-8.11c-1.5-1.9-3.64-2.85-6.43-2.85s-4.95.94-6.49,2.82c-1.54,1.88-2.31,4.55-2.31,8.01s.78,6.18,2.34,8.14c1.56,1.96,3.72,2.95,6.46,2.95s4.88-.95,6.4-2.85Z"/>
      </g>
    </g>
    <path class="cls-4" d="M182.9,99.59c-1.54-5.49-4.16-10.8-8.33-14.69.65.61,1.09,1.98,1.5,2.78.5.96.98,1.93,1.44,2.9.94,1.98,1.81,3.98,2.61,6.02,1.65,4.21,3.02,7.68,3.91,12.43.09.49.16.9.21,1.17.03-2.14-.12-4.27-.45-6.39,0,0-.32-2.17-.9-4.23Z"/>
    <path class="cls-3" d="M189.91,101c1.82-6.05,4.85-11.88,9.55-16.11-.74.66-1.25,2.17-1.73,3.05-.57,1.05-1.13,2.11-1.66,3.19-1.08,2.17-2.09,4.38-3.02,6.62-1.92,4.63-3.52,8.45-4.6,13.7-.11.54-.2,1-.25,1.3.02-2.38.23-4.73.63-7.08,0,0,.4-2.4,1.08-4.67Z"/>
    <path class="cls-4" d="M188.97,119.22c1.69-4.33,4.27-8.44,8.03-11.28-.59.45-1.05,1.52-1.46,2.14-.49.74-.96,1.49-1.42,2.24-.93,1.53-1.8,3.09-2.62,4.68-1.69,3.29-3.09,6-4.18,9.78-.11.39-.2.72-.26.94.14-1.74.42-3.45.85-5.15,0,0,.43-1.74,1.06-3.36Z"/>
  </g>
</svg>
